<svg xmlns="http://www.w3.org/2000/svg" viewBox="378 -7987 260.6 240.3"><defs><style>.a{fill:#64adf1;}.b{fill:#51a1ee;}.c{fill:#0644a4;}.d{fill:#3b99ec;}.e{fill:#238eeb;}.f{fill:#1d53ac;}.g{fill:#1285e9;}.h{fill:#cd0a1b;}</style></defs><g transform="translate(308.3 -8071.8)"><path class="a" d="M173.8,84.8H121.9l26,44.9Z"/><path class="b" d="M95.8,129.8h52l.1-.1-26-44.9h-.2l-26,44.9Z"/><path class="c" d="M95.7,129.7v.1h.1Z"/><path class="c" d="M252.2,129.8h52l.1-.1-26-44.9h-.2l-26,44.9Z"/><path class="c" d="M304.3,129.7l-.1.1h.1Z"/><path class="d" d="M147.8,129.8h-52l26,45Z"/><path class="e" d="M95.8,129.8h-.1l-26,45h52.1Z"/><path class="f" d="M304.2,129.8h-52l26,45Z"/><path class="g" d="M304.2,129.8l-26,45h52.1l-26-45Z"/><path class="g" d="M69.7,174.8l26,45h.1l26-45Z"/><path class="f" d="M95.8,219.8h52l-26-45Z"/><path class="e" d="M304.2,219.8h.1l26-45H278.2Z"/><path class="d" d="M252.2,219.8h52l-26-45Z"/><path class="c" d="M95.7,219.8h0Z"/><path class="c" d="M147.8,219.8H95.7l26,44.9h.2l26-44.9Z"/><path class="c" d="M304.3,219.8Z"/><path class="b" d="M304.2,219.8H252.1l26,44.9h.2l26-44.9Z"/><path class="a" d="M226.2,264.7h51.9l-26-44.9Z"/><path class="h" d="M121.9,264.7h11l34.7-60h-11Z"/><path class="h" d="M237,84.8H226l-34.7,60h11Z"/><path class="h" d="M257.7,84.8H246.4l-34.7,60H223Z"/><path class="h" d="M142.3,264.7h11.3l34.7-60H177Z"/><path class="h" d="M278.1,84.8H266.9l-34.7,60h11.2Z"/><path class="h" d="M162.8,264.7H174l34.7-60H197.5Z"/><path class="h" d="M239.1,152.3H187l-5.7,9.8h52.1Z"/><path class="h" d="M171.1,179.7h52.1l5.7-9.9H176.8Z"/><path class="h" d="M160.9,197.2H213l5.7-9.8H166.6Z"/><path d="M103.3,318.1a9.332,9.332,0,0,0,3.6.6c4.8,0,4.8-3.9,4.8-6.5V287.5h7.4v28.2c0,3.9-2.5,9.4-10.1,9.4a22.791,22.791,0,0,1-5.7-.7v-6.3Z"/><path d="M149.2,295h-.1l-10.7,29.6h-7.7l14.4-37h8.4l14.5,37h-8.2Z"/><path d="M179.6,287.5H189c8.1,0,15.4,2.3,15.4,11.2,0,8.7-6.3,11.8-14.3,11.8H187v14.1h-7.4V287.5Zm7.5,17.2h2.6c3.7,0,7.1-1.2,7.1-5.5s-3.2-5.8-7.1-5.8h-2.6Z"/><path d="M258.3,287.5h9.1l14.1,27.7h.1V287.5h7.1v37h-9.1l-14.2-27.7h-.1v27.7h-7.1v-37Z"/><path d="M228.8,295h-.1L218,324.6h-7.7l14.4-37h8.4l14.5,37h-8.2Z"/></g></svg>