<svg xmlns="http://www.w3.org/2000/svg" viewBox="718 -8513 659 455"><defs><style>.a{fill:#64adf1;}.b{fill:#51a1ee;}.c{fill:#0644a4;}.d{fill:#3b99ec;}.e{fill:#238eeb;}.f{fill:#1d53ac;}.g{fill:#1285e9;}.h{fill:#cd0a1b;}</style></defs><g transform="translate(534.2 -8797.5)"><path class="a" d="M447.1,284.5H315.8L381.5,398Z"/><path class="b" d="M249.8,398.3H381.3l.2-.3L315.8,284.5h-.5L249.6,398Z"/><path class="c" d="M249.6,398l-.1.3h.3Z"/><path class="c" d="M645.2,398.3H776.7l.2-.3L711.2,284.5h-.5L645,398Z"/><path class="c" d="M776.9,398l-.2.3h.3Z"/><path class="d" d="M381.3,398.3H249.8L315.6,512Z"/><path class="e" d="M249.8,398.3h-.3L183.8,512H315.6Z"/><path class="f" d="M776.7,398.3H645.2L711,512Z"/><path class="g" d="M776.7,398.3,711,512H842.8L777,398.3Z"/><path class="g" d="M183.8,512l65.7,113.7h.3L315.6,512Z"/><path class="f" d="M249.8,625.7H381.3L315.6,512Z"/><path class="e" d="M776.7,625.7h.3L842.8,512H711Z"/><path class="d" d="M645.2,625.7H776.7L711,512Z"/><path class="c" d="M249.6,625.9l.2-.2h-.3Z"/><path class="c" d="M381.3,625.7H249.8l-.2.2,65.7,113.6h.5l65.7-113.6Z"/><path class="c" d="M776.9,625.9l.1-.2h-.3Z"/><path class="b" d="M776.7,625.7H645.2l-.2.2,65.7,113.6h.5l65.7-113.6Z"/><path class="a" d="M579.4,739.5H710.7L645,625.9Z"/><path class="h" d="M315.8,739.5h27.9l87.7-151.8H403.5Z"/><path class="h" d="M606.8,284.5H578.9L491.2,436.1h27.9Z"/><path class="h" d="M659,284.5H630.4L542.7,436.1h28.7Z"/><path class="h" d="M367.3,739.5H396l87.7-151.8H455.1Z"/><path class="h" d="M710.7,284.5H682.3L594.6,436.1H623Z"/><path class="h" d="M419.2,739.5h28.4l87.7-151.8H507Z"/><path class="h" d="M612,455.1H480.4L465.9,480H597.6Z"/><path class="h" d="M440.2,524.4H571.9l14.4-24.9H454.6Z"/><path class="h" d="M414.4,568.8H546.1l14.4-24.9H428.8Z"/></g></svg>
